<svg width="113" height="113" viewBox="0 0 113 113" fill="none" xmlns="http://www.w3.org/2000/svg">
<circle cx="56.5" cy="56.5" r="49.2097" fill="#3690C0"/>
<circle cx="56.5" cy="56.5" r="55.5" stroke="#3690C0" stroke-width="2"/>
<path d="M71.5048 73.3913C70.4457 73.3913 69.6853 72.9568 69.0879 72.1421C66.2907 68.3402 63.4936 64.5382 60.7237 60.7092C60.3978 60.2475 60.1262 60.1389 59.5559 60.329C58.3067 60.7906 57.0032 61.1437 55.7268 61.551C54.6134 61.9041 53.6086 61.6868 52.7668 60.8721C50.6486 58.8082 48.5304 56.7715 46.4393 54.6804C45.2987 53.5398 45.2716 51.8018 46.3307 50.7156C47.4169 49.575 49.155 49.5478 50.3499 50.6884C51.9249 52.182 53.4729 53.7299 55.0208 55.2507C55.3195 55.5494 55.5911 55.6037 55.9713 55.468C57.3562 55.0063 58.7412 54.5718 60.0991 54.1373C61.5655 53.6485 62.6789 54.0015 63.6294 55.2507C66.508 59.1613 69.3866 63.0718 72.238 67.0095C72.5367 67.4168 72.8083 67.5255 73.2971 67.4168C76.2572 66.8737 79.2444 66.3849 82.2045 65.8961C83.7524 65.6517 85.1917 66.6293 85.4633 68.1229C85.7348 69.698 84.7572 71.1644 83.155 71.436C79.4345 72.0878 75.7412 72.7124 72.0208 73.337C71.8307 73.3641 71.6134 73.3641 71.4505 73.3913H71.5048ZM54.6677 60.6549C55.0479 60.5462 55.2923 60.5191 55.5367 60.4376C56.8674 60.0303 58.1709 59.6229 59.5016 59.1884C60.3344 58.9168 61.0133 59.1432 61.5383 59.8673C64.3355 63.6692 67.1326 67.4712 69.9026 71.2731C70.4457 72.0335 71.0975 72.3593 72.0479 72.1692C74.0575 71.7891 76.0671 71.4903 78.0767 71.1373C79.7604 70.8386 81.4169 70.567 83.1006 70.2411C83.861 70.1053 84.3499 69.5079 84.4313 68.7747C84.4856 68.1229 84.1326 67.3897 83.508 67.1724C83.0735 67.0367 82.5575 67.0095 82.123 67.0638C79.1086 67.5526 76.0943 68.0686 73.0799 68.6117C72.4281 68.7204 72.0479 68.5846 71.6677 68.0414C68.762 64.0494 65.8291 60.0574 62.9233 56.0654C62.1358 54.9791 61.6741 54.8434 60.3706 55.2779C58.9042 55.7395 57.4377 56.2012 55.9713 56.69C55.4281 56.8801 55.0479 56.7715 54.6406 56.3641C53.0112 54.7347 51.3546 53.1053 49.6709 51.5031C48.9106 50.7699 47.9329 50.7699 47.254 51.5031C46.6022 52.182 46.6294 53.1325 47.3626 53.8657C49.4537 55.9296 51.5447 57.9664 53.6358 60.0031C53.9345 60.3018 54.3962 60.4376 54.6949 60.6277L54.6677 60.6549Z" fill="white"/>
<path d="M28 48.5977C28 43.0306 31.8834 38.251 37.369 37.0833C42.746 35.9156 48.2859 38.7398 50.5671 43.791C50.5943 43.8453 50.6214 43.9267 50.6486 43.981C50.8115 44.3612 50.8387 44.7143 50.4042 44.9044C49.9968 45.0673 49.7252 44.8501 49.5623 44.4427C48.8019 42.6504 47.6342 41.1568 46.0591 40.0162C42.5559 37.4635 37.7492 37.3277 34.0831 39.6632C30.4169 41.9986 28.4888 46.4251 29.3307 50.6072C30.2268 55.0338 33.6214 58.374 37.9936 59.1344C39.7859 59.4331 41.5783 59.2973 43.2891 58.6999C43.6965 58.5641 44.131 58.4283 44.3211 58.9715C44.5112 59.5146 44.0767 59.6504 43.6693 59.8133C36.0655 62.5561 28 56.7989 28 48.6248V48.5977Z" fill="white"/>
<path d="M52.1965 81.9456C50.1598 81.9456 48.8291 79.9089 49.6709 78.0079C50.6486 75.7539 51.6534 73.5271 52.6582 71.3003C53.2284 70.0511 53.7987 68.7747 54.3419 67.5255C54.6677 66.7923 55.1837 66.2491 55.9169 65.9233C56.976 65.4616 58.0351 64.9728 59.0943 64.5111C59.4744 64.3482 59.8546 64.2124 60.099 64.7012C60.3435 65.19 59.9904 65.4073 59.6102 65.5702C58.5511 66.0319 57.492 66.4664 56.4601 67.0095C56.0527 67.2268 55.6454 67.607 55.4553 68.0415C53.8802 71.4632 52.3594 74.8849 50.8387 78.3338C50.377 79.3658 50.6757 80.2891 51.5719 80.6964C52.4681 81.1038 53.3642 80.6964 53.853 79.6373C55.2109 76.5958 56.5959 73.5542 57.9265 70.5127C58.1438 70.0239 58.4153 69.698 58.9313 69.5079C59.8546 69.1549 60.7237 68.7747 61.6198 68.3674C62 68.2044 62.4074 68.1229 62.5974 68.5846C62.7875 69.0734 62.4345 69.2635 62.0543 69.4265C61.2668 69.7523 60.4521 70.0511 59.6917 70.4584C59.3658 70.6213 59.0128 70.9201 58.877 71.2731C57.5192 74.2603 56.1885 77.2747 54.8307 80.2619C54.3147 81.4025 53.3642 81.9999 52.2236 81.9999L52.1965 81.9456Z" fill="white"/>
<path d="M63.6294 46.2074C63.6294 49.1946 61.2668 51.5029 58.2795 51.4758C55.3738 51.4758 53.0655 49.1131 53.0655 46.2074C53.0655 43.2202 55.4281 40.8847 58.3882 40.9119C61.3482 40.939 63.6294 43.2745 63.6294 46.2074ZM58.361 42.0253C56.0799 42.0253 54.2061 43.9262 54.2061 46.1802C54.2061 48.4071 56.0799 50.2809 58.3339 50.308C60.5879 50.308 62.4888 48.4342 62.516 46.1802C62.516 43.8991 60.6422 42.0253 58.361 42.0253Z" fill="white"/>
<path d="M69.1422 50.3356C70.4728 50.3356 71.2332 50.6886 71.7764 51.3947C73.2971 53.3499 74.7907 55.3052 76.2572 57.2876C77.2077 58.5912 76.9361 60.302 75.6869 61.2253C74.4649 62.1215 72.7811 61.9043 71.8035 60.6551C70.6901 59.2429 69.6038 57.7765 68.4904 56.3372C68.246 56.0113 68.0831 55.6854 68.4904 55.3867C68.8978 55.0608 69.1965 55.3324 69.4409 55.6582C70.5 57.0704 71.5863 58.4825 72.6725 59.8675C73.27 60.6279 74.1933 60.818 74.8994 60.3563C75.6869 59.8675 75.9313 58.8084 75.361 58.0209C73.8674 56.0113 72.3738 54.0289 70.8259 52.0464C70.3371 51.4218 69.631 51.2589 68.8706 51.5848C68.1917 51.8835 67.5128 52.1822 66.8339 52.5081C66.4537 52.671 66.1006 52.7253 65.9105 52.2908C65.6933 51.8563 65.992 51.6119 66.3722 51.449C67.4313 51.0145 68.4904 50.5528 69.1693 50.2812L69.1422 50.3356Z" fill="white"/>
<path d="M41.6326 48.2986C41.6326 49.7651 40.5463 50.6612 39.4601 50.3625C38.9712 50.2267 38.6997 50.3625 38.401 50.6612C37.7764 51.2587 37.1246 51.829 36.5 52.3993C36.2013 52.6708 35.8482 52.8066 35.5495 52.4807C35.2508 52.1277 35.4137 51.829 35.7124 51.5302C36.3914 50.9328 37.0703 50.3354 37.722 49.6836C37.9121 49.4935 38.0208 49.1676 38.0208 48.8961C37.9664 48.1085 38.2109 47.4839 38.8626 47.0223C39.0527 46.8865 39.2156 46.5877 39.2156 46.3433C39.27 45.42 39.2156 44.4967 39.2156 43.5462C39.2156 43.1389 39.3243 42.813 39.8131 42.813C40.2747 42.813 40.3562 43.1389 40.3562 43.5191C40.3562 44.4152 40.3562 45.2842 40.3562 46.1804C40.3562 46.5877 40.4648 46.8322 40.8179 47.1309C41.2252 47.4839 41.4696 48.0542 41.6326 48.2715V48.2986ZM40.7636 48.6245C40.3291 48.2986 40.0575 47.9727 39.8402 47.9999C39.5958 47.9999 39.4057 48.3801 39.1613 48.5973C39.3786 48.8146 39.5687 49.1676 39.8131 49.2219C40.0303 49.2491 40.3019 48.9232 40.7636 48.6245Z" fill="white"/>
<path d="M38.1294 34.3946C37.3147 34.4217 37.0974 33.9872 37.1517 33.2812C37.2061 32.7652 37.1517 32.2492 37.1517 31.7061C37.1517 31.2173 37.369 31 37.8578 31C39.1613 31 40.4377 31 41.7412 31C42.2572 31 42.4744 31.2444 42.4744 31.7604C42.4744 32.222 42.4744 32.6565 42.4744 33.1182C42.4744 33.8424 42.1395 34.2859 41.4696 34.4489C41.3338 34.8562 41.6326 35.5895 40.845 35.5895C40.0575 35.5895 40.3562 34.8562 40.1933 34.3946H39.3786C39.1885 34.8019 39.5144 35.6166 38.6725 35.5895C37.9664 35.5623 38.1837 34.9105 38.0751 34.3674L38.1294 34.3946ZM38.3195 33.1454H41.2252V32.1949H38.3195V33.1454Z" fill="white"/>
<path d="M39.8946 40.0161C43.3706 40.1247 46.6566 42.5145 47.9058 45.7461C48.0687 46.1535 48.1502 46.5337 47.6613 46.7238C47.1725 46.9139 46.9824 46.588 46.8195 46.2078C45.4617 43.112 43.099 41.4011 39.6773 41.211C39.27 41.211 38.9169 41.0752 38.9441 40.6136C38.9441 39.989 39.4601 40.0161 39.8946 40.0433V40.0161Z" fill="white"/>
<path d="M39.8674 57.4776C37.5048 57.3147 35.4409 56.5272 33.73 54.9249C33.5128 54.7348 33.377 54.3275 33.4313 54.0559C33.5128 53.6214 34.0287 53.6214 34.4632 54.0288C35.4409 54.9249 36.5271 55.5767 37.8035 55.9026C39.3514 56.3371 40.8993 56.2556 42.4201 55.7396C42.8275 55.6038 43.2076 55.5224 43.3977 55.984C43.5878 56.5 43.2076 56.7444 42.7731 56.8259C41.7955 57.0431 40.8179 57.2332 39.8674 57.4233V57.4776Z" fill="white"/>
<path d="M83.3179 60.7907C82.5032 60.7907 81.6885 60.7907 80.8738 60.7907C80.4665 60.7907 80.1134 60.7092 80.0863 60.2204C80.0863 59.7044 80.4393 59.5958 80.8738 59.623C82.5304 59.623 84.1869 59.623 85.8435 59.623C86.2508 59.623 86.6038 59.7044 86.631 60.1661C86.631 60.6821 86.278 60.7907 85.8435 60.7907C85.0016 60.7907 84.1598 60.7907 83.3179 60.7907Z" fill="white"/>
<path d="M30.3626 37.7349C30.1182 37.9521 29.9281 38.115 29.7109 38.3323C29.901 38.5496 30.1182 38.7125 30.1997 38.9297C30.2812 39.2013 30.1997 39.5 30.1997 39.7716C29.9281 39.7716 29.5751 39.8259 29.3578 39.663C29.0048 39.4186 28.7061 39.0927 28.516 38.7125C28.4074 38.4681 28.4074 38.0336 28.5703 37.8435C28.9776 37.3547 29.5208 36.9473 30.0096 36.5128C30.0096 36.5128 30.0368 36.4857 30.0639 36.4585C30.4441 36.1869 30.77 36.2956 30.9872 36.6486C31.3131 37.1646 32.2093 37.409 31.8291 38.2508C31.6661 38.6039 31.2859 38.6039 30.9601 38.3323C30.77 38.1694 30.607 37.9793 30.3626 37.762V37.7349Z" fill="white"/>
<path d="M49.9153 38.3324C49.6709 38.1151 49.4808 37.925 49.1821 37.6806C48.992 37.8979 48.8834 38.1966 48.6933 38.2781C48.4489 38.3867 48.123 38.3324 47.8514 38.3324C47.8514 38.0608 47.8514 37.7892 47.8514 37.5448C47.8514 37.5177 47.9058 37.4634 47.9329 37.4362C49.0735 35.9969 49.1006 35.9969 50.4856 37.2733C51.2279 37.9612 51.2641 38.6764 50.5943 39.4186C50.4856 39.5544 50.3498 39.7445 50.2141 39.7988C49.9697 39.8531 49.6438 39.9075 49.508 39.7717C49.3722 39.6359 49.345 39.2829 49.4265 39.0656C49.508 38.8212 49.7524 38.6311 49.9696 38.3595L49.9153 38.3324Z" fill="white"/>
<path d="M60.6965 79.4743C61.3211 79.4743 61.9185 79.4743 62.5431 79.4743C62.9233 79.4743 63.2764 79.6372 63.1677 80.0445C63.1134 80.2618 62.7604 80.5605 62.5431 80.5605C61.2668 80.6148 60.0176 80.5605 58.7412 80.5605C58.3339 80.5605 58.008 80.3704 58.0895 79.9631C58.1438 79.7458 58.4968 79.4743 58.7141 79.4471C59.3658 79.3656 60.0176 79.4471 60.6965 79.4471V79.4743Z" fill="white"/>
<path d="M78.4026 51.4488C77.9137 51.4488 77.4249 51.5031 76.9904 51.4488C76.7732 51.3945 76.5831 51.0957 76.393 50.8785C76.5831 50.6884 76.7732 50.3897 76.9633 50.3625C77.8866 50.3082 78.8371 50.3082 79.7604 50.3625C79.9776 50.3625 80.1677 50.7155 80.3578 50.9328C80.1677 51.1229 79.9776 51.3945 79.7604 51.4488C79.3259 51.5302 78.8642 51.4488 78.4026 51.4488Z" fill="white"/>
<path d="M69.3866 44.4694C69.0879 44.4694 68.762 44.5509 68.5176 44.4694C68.3003 44.388 68.0016 44.1164 68.0016 43.9263C68.0016 43.7362 68.3003 43.3832 68.4904 43.356C69.115 43.2746 69.7668 43.2746 70.3642 43.356C70.5815 43.356 70.7444 43.7091 70.9345 43.8992C70.7173 44.0893 70.5543 44.388 70.3099 44.4694C70.0384 44.5781 69.6853 44.4694 69.3594 44.4694H69.3866Z" fill="white"/>
<path d="M63.5208 74.7221C63.222 74.7221 62.8962 74.8035 62.6518 74.7221C62.4073 74.6406 62.2173 74.369 62.0272 74.1789C62.2173 73.9888 62.3802 73.663 62.5974 73.6358C63.2492 73.5543 63.901 73.5543 64.5527 73.6358C64.7428 73.6358 65.0687 73.9888 65.0687 74.1789C65.0687 74.369 64.77 74.6406 64.5527 74.7221C64.254 74.8035 63.8738 74.7221 63.5479 74.7221H63.5208Z" fill="white"/>
<path d="M83.9153 51.4489C83.7252 51.4489 83.4808 51.5032 83.3179 51.4489C83.1278 51.3402 82.8834 51.0958 82.8834 50.96C82.8834 50.7428 83.1278 50.4712 83.3179 50.4169C83.6166 50.3083 83.9968 50.3083 84.3227 50.4169C84.5671 50.4984 84.893 50.7156 84.9473 50.9329C85.0288 51.3402 84.7029 51.5032 84.3227 51.5032C84.1869 51.5032 84.0511 51.5032 83.9153 51.5032V51.4489Z" fill="white"/>
<path d="M66.2093 80.6422C65.9377 80.5879 65.6118 80.5879 65.4489 80.425C65.3131 80.2621 65.3674 79.909 65.3674 79.6646C65.9106 79.6646 66.4808 79.6646 67.024 79.6375C67.024 79.909 67.1054 80.2621 66.9697 80.4521C66.861 80.6151 66.4808 80.5879 66.2093 80.6694V80.6422Z" fill="white"/>
</svg>
