<svg width="231" height="54" viewBox="0 0 231 54" fill="none" xmlns="http://www.w3.org/2000/svg">
<path d="M8.21007 32.5083H15.6546L23.7757 53.3404H16.1548L15.0659 50.2801H8.44558L7.41577 53.3404H0.00118637L8.21007 32.5083ZM11.8292 39.7761L10.1224 44.9251H13.5064L11.8292 39.7761Z" fill="#187C9C"/>
<path d="M22.0094 42.9246C21.9872 41.3694 22.2877 39.8266 22.8919 38.3934C23.4501 37.0833 24.2712 35.9017 25.3044 34.9216C26.346 33.9476 27.5723 33.1923 28.9109 32.7004C30.3274 32.1738 31.8278 31.9087 33.339 31.9183C34.8939 31.9096 36.4382 32.1743 37.9014 32.7004C39.2256 33.1566 40.4458 33.8717 41.491 34.8039L37.1949 39.9824C36.8095 39.4781 36.3036 39.0786 35.7236 38.8206C35.1025 38.5491 34.4305 38.4136 33.7527 38.4234C33.1886 38.4189 32.6291 38.5238 32.105 38.7323C31.6008 38.9345 31.1447 39.2403 30.7662 39.6301C30.3727 40.0394 30.0672 40.5251 29.8685 41.057C29.6459 41.6544 29.5361 42.288 29.5448 42.9254C29.5341 43.5548 29.6492 44.18 29.8833 44.7643C30.0956 45.284 30.4054 45.7583 30.7958 46.1617C31.1741 46.5516 31.6302 46.8575 32.1345 47.0594C32.649 47.2662 33.1987 47.3711 33.7531 47.3684C34.4765 47.3885 35.1923 47.2159 35.8271 46.8682C36.3597 46.575 36.8257 46.1743 37.1953 45.6916L41.4914 50.8406C40.4971 51.8166 39.3164 52.5822 38.0196 53.0918C35.0867 54.1945 31.8559 54.2099 28.9126 53.1353C27.5723 52.6331 26.3461 51.8678 25.3061 50.8845C24.2773 49.9007 23.4569 48.72 22.8937 47.4127C22.2896 45.9945 21.9884 44.4658 22.0094 42.9246Z" fill="black"/>
<path d="M53.0513 53.3404H46.0486V38.4225H40.9309V32.5083H58.1734V38.4225H53.0513V53.3404Z" fill="black"/>
<path d="M59.7298 32.5083H66.7911V53.3404H59.7298V32.5083Z" fill="black"/>
<path d="M68.557 42.8068C68.534 41.2564 68.8345 39.7182 69.4395 38.2904C69.9981 36.9894 70.8254 35.8211 71.8671 34.8621C72.9314 33.9003 74.1766 33.1603 75.5301 32.6852C78.5052 31.665 81.7355 31.665 84.7106 32.6852C86.0676 33.1624 87.3175 33.9021 88.3888 34.8621C89.4378 35.8177 90.2705 36.9866 90.8307 38.2904C91.4359 39.7181 91.7365 41.2564 91.7132 42.8068C91.7338 44.3719 91.4334 45.9247 90.8307 47.3692C90.272 48.6994 89.4401 49.8973 88.3888 50.8853C87.3239 51.8718 86.0736 52.6369 84.7106 53.1361C81.7421 54.1956 78.4986 54.1956 75.5301 53.1361C74.1706 52.639 72.9249 51.8736 71.8671 50.8853C70.8233 49.8939 69.9967 48.6966 69.4395 47.3692C68.837 45.9246 68.5366 44.3719 68.557 42.8068ZM76.0007 42.8068C75.993 43.4476 76.0976 44.0848 76.3096 44.6896C76.4984 45.2295 76.7878 45.7288 77.1626 46.1608C77.5236 46.5717 77.9706 46.898 78.4718 47.1168C78.991 47.3444 79.5525 47.4598 80.1195 47.4553C80.6739 47.4619 81.2234 47.3497 81.7309 47.1264C82.2385 46.9031 82.6923 46.5737 83.062 46.1604C83.445 45.7315 83.7403 45.2316 83.9311 44.6891C84.1431 44.0844 84.2477 43.4472 84.24 42.8064C84.2469 42.1799 84.1423 41.5573 83.9311 40.9675C83.7444 40.4406 83.4483 39.9593 83.062 39.5553C82.6798 39.1632 82.2219 38.8527 81.7161 38.6428C81.2102 38.4329 80.6671 38.328 80.1195 38.3343C79.554 38.3299 78.9935 38.4402 78.4718 38.6585C77.9778 38.8634 77.5319 39.1689 77.1626 39.5558C76.7845 39.9631 76.4942 40.4437 76.3096 40.9679C76.0984 41.5577 75.9938 42.1804 76.0007 42.8068Z" fill="black"/>
<path d="M93.48 32.5083H100.454L106.397 43.0714H106.515L106.22 32.5083H112.869V53.3404H105.718L99.9517 43.3951H99.8339L100.128 53.3404H93.48V32.5083Z" fill="black"/>
<path d="M114.545 42.6908C114.523 41.1356 114.824 39.5928 115.428 38.1597C115.986 36.8494 116.807 35.6676 117.84 34.6874C118.882 33.7134 120.108 32.9581 121.447 32.4662C122.864 31.9406 124.364 31.6765 125.875 31.6867C127.43 31.6773 128.974 31.9412 130.438 32.4662C131.762 32.9226 132.982 33.6378 134.027 34.5701L129.731 39.7482C129.346 39.2439 128.84 38.8444 128.26 38.5863C127.639 38.3149 126.967 38.1794 126.289 38.1892C125.725 38.1845 125.165 38.2894 124.641 38.4981C124.135 38.7 123.677 39.0062 123.298 39.3967C122.904 39.8062 122.599 40.292 122.4 40.8241C122.177 41.4215 122.068 42.055 122.076 42.6925C122.066 43.3219 122.181 43.9471 122.415 44.5314C122.627 45.0512 122.937 45.5256 123.327 45.9292C123.706 46.319 124.162 46.6248 124.666 46.8265C125.18 47.0334 125.73 47.1384 126.285 47.1355C127.008 47.1556 127.724 46.983 128.359 46.6353C128.891 46.3418 129.357 45.941 129.726 45.4582L134.023 50.6072C133.028 51.5831 131.847 52.3486 130.551 52.858C127.618 53.9609 124.387 53.9763 121.444 52.9015C120.104 52.3992 118.877 51.6339 117.837 50.6507C116.808 49.6669 115.988 48.4862 115.425 47.1789C114.822 45.7604 114.523 44.2317 114.545 42.6908Z" fill="#187C9C"/>
<path d="M133.986 42.573C133.963 41.0226 134.263 39.4844 134.869 38.0567C135.427 36.7556 136.254 35.5873 137.296 34.6288C138.36 33.6668 139.606 32.9266 140.959 32.4514C143.934 31.4317 147.164 31.4317 150.139 32.4514C151.496 32.9288 152.746 33.6687 153.817 34.6288C154.867 35.584 155.699 36.7529 156.259 38.0567C156.865 39.4843 157.165 41.0226 157.142 42.573C157.163 44.1382 156.862 45.6909 156.259 47.1355C155.701 48.4657 154.869 49.6636 153.817 50.6516C152.752 51.6379 151.502 52.403 150.139 52.9024C147.171 53.9618 143.927 53.9618 140.959 52.9024C139.6 52.4052 138.354 51.6397 137.296 50.6516C136.252 49.6603 135.426 48.463 134.869 47.1355C134.266 45.6909 133.966 44.1382 133.986 42.573ZM141.43 42.573C141.423 43.2138 141.527 43.851 141.739 44.4558C141.928 44.9958 142.217 45.4952 142.592 45.9275C142.953 46.3381 143.4 46.6644 143.901 46.8834C144.421 47.1108 144.982 47.226 145.549 47.2215C146.103 47.2282 146.653 47.1162 147.16 46.8929C147.668 46.6696 148.121 46.3403 148.491 45.9271C148.874 45.4982 149.17 44.9981 149.36 44.4554C149.572 43.8506 149.677 43.2134 149.669 42.5726C149.676 41.9462 149.571 41.3235 149.36 40.7337C149.174 40.2067 148.878 39.7254 148.491 39.3216C148.109 38.9292 147.651 38.6187 147.145 38.4087C146.64 38.1987 146.097 38.0938 145.549 38.1001C144.983 38.0957 144.423 38.2058 143.901 38.4238C143.407 38.6287 142.961 38.9344 142.592 39.3216C142.214 39.7289 141.923 40.2096 141.739 40.7337C141.528 41.3237 141.423 41.9465 141.43 42.573Z" fill="black"/>
<path d="M158.908 32.2759H165.97V47.0759H172.884V53.1066H158.908V32.2759Z" fill="black"/>
<path d="M174.473 32.2759H181.534V47.0759H188.45V53.1066H174.473V32.2759Z" fill="black"/>
<path d="M197.01 32.2759H204.455L212.578 53.1066H204.955L203.867 50.0467H197.246L196.216 53.1066H188.802L197.01 32.2759ZM200.63 39.5436L198.923 44.6926H202.306L200.63 39.5436Z" fill="black"/>
<path d="M227.081 42.2789C227.586 42.4024 228.071 42.5954 228.523 42.8524C228.994 43.1176 229.421 43.4548 229.788 43.8518C230.164 44.2604 230.463 44.7339 230.671 45.2492C230.892 45.8112 231.002 46.411 230.994 47.0151C231.038 47.9596 230.827 48.8986 230.385 49.7342C229.943 50.5698 229.284 51.2716 228.479 51.7665C227.684 52.2627 226.807 52.6116 225.889 52.7963C224.907 53.0035 223.906 53.107 222.903 53.1053H213.458V32.2759H222.022C222.923 32.2798 223.823 32.3437 224.716 32.4671C225.628 32.5833 226.517 32.8415 227.349 33.2322C228.148 33.6109 228.836 34.1885 229.348 34.9095C229.913 35.767 230.191 36.7818 230.143 37.8077C230.183 38.7977 229.887 39.7722 229.304 40.5734C228.73 41.3105 227.96 41.8713 227.083 42.192L227.081 42.2789ZM219.99 37.7164V40.2762H221.873C222.301 40.2943 222.723 40.1759 223.079 39.9381C223.238 39.8171 223.364 39.6584 223.447 39.4763C223.529 39.2942 223.564 39.0945 223.55 38.8953C223.558 38.716 223.515 38.5381 223.426 38.3819C223.338 38.2257 223.208 38.0974 223.05 38.0115C222.643 37.7982 222.186 37.6967 221.726 37.7173L219.99 37.7164ZM219.99 44.7778V47.6021H222.079C222.552 47.6239 223.021 47.495 223.417 47.2341C223.587 47.113 223.723 46.9511 223.813 46.7634C223.903 46.5757 223.944 46.3683 223.932 46.1604C223.942 45.9158 223.864 45.6757 223.712 45.4839C223.562 45.3055 223.376 45.1602 223.167 45.0572C222.95 44.949 222.716 44.8746 222.476 44.8364C222.248 44.7988 222.016 44.7792 221.785 44.7778H219.99Z" fill="black"/>
<path d="M48.9029 15.1816L49.2267 26.9513H42.6941V6.11929H51.8529L55.6236 17.3298H55.7709L59.0402 6.11929H68.4966V26.9504H61.6729L61.8785 15.2398L61.7021 15.2102L57.8179 26.9504H52.8749L49.0511 15.1807L48.9029 15.1816Z" fill="black"/>
<path d="M77.3846 15.1816L77.7083 26.9513H71.1763V6.11929H80.3372L84.1079 17.3298H84.2548L87.5245 6.11929H96.9804V26.9504H90.1542L90.3601 15.2398L90.1833 15.2102L86.2996 26.9504H81.357L77.5332 15.1807L77.3846 15.1816Z" fill="black"/>
<path d="M108.692 27.6387C107.245 27.6685 105.805 27.4393 104.44 26.9617C103.316 26.5618 102.288 25.9303 101.424 25.1081C100.623 24.3289 100.009 23.3781 99.6288 22.3272C99.2296 21.2188 99.0304 20.0483 99.0405 18.8702V6.21836H106.043V18.1054C105.992 18.9467 106.248 19.7779 106.764 20.4444C107.309 20.982 108.043 21.2835 108.809 21.2835C109.574 21.2835 110.309 20.982 110.854 20.4444C111.37 19.7779 111.626 18.9467 111.575 18.1054V6.21836H118.548V18.8706C118.558 20.0526 118.343 21.2257 117.915 22.3276C117.505 23.3807 116.867 24.3302 116.047 25.1085C115.161 25.9314 114.114 26.5624 112.972 26.9622C111.596 27.4377 110.147 27.6668 108.692 27.6387Z" fill="black"/>
<path d="M120.96 6.21836H127.934L133.877 16.7815H133.994L133.7 6.21836H140.348V27.0504H133.2L127.434 17.1052H127.316L127.61 27.0504H120.962L120.96 6.21836Z" fill="black"/>
<path d="M141.88 6.21836H148.941V27.0504H141.88V6.21836Z" fill="black"/>
<path d="M162.623 27.0504H155.62V12.1326H150.501V6.21836H167.743V12.1326H162.623V27.0504Z" fill="black"/>
<path d="M181.16 27.0504H174.157V18.5178L166.301 6.21836H174.745L178.041 12.3368L181.189 6.21663H189.428L181.16 18.5178V27.0504Z" fill="black"/>
<path d="M34.5913 19.0583C35.6884 19.0583 37.4456 19.9478 39.0916 21.4299C41.2898 23.4096 42.4573 25.696 41.6987 26.5376C41.587 26.6472 41.4533 26.7316 41.3065 26.7854C41.1596 26.8391 41.003 26.8609 40.847 26.8492C39.7499 26.8492 37.9927 25.9597 36.3467 24.4776C34.1485 22.4979 32.981 20.2115 33.7396 19.3699C33.8513 19.2603 33.9851 19.1759 34.1321 19.1222C34.279 19.0684 34.4357 19.0467 34.5917 19.0583M34.5917 18.4861C34.3552 18.4721 34.1185 18.5096 33.8979 18.5961C33.6773 18.6826 33.4782 18.816 33.3142 18.9871C32.1623 20.2667 33.7752 22.9316 35.9648 24.9026C37.6902 26.456 39.5613 27.4228 40.8479 27.4228C41.0843 27.4367 41.321 27.3992 41.5416 27.3127C41.7621 27.2263 41.9613 27.0931 42.1254 26.9222C43.2773 25.6425 41.6639 22.9772 39.4748 21.0062C37.7493 19.4529 35.8783 18.4861 34.5917 18.4861Z" fill="#0A51A1"/>
<path d="M33.5472 19.8817C34.6165 19.8817 36.348 21.1853 37.7937 23.1749C39.5317 25.5682 40.1992 28.0476 39.2828 28.7128C39.1187 28.8267 38.9223 28.8848 38.7227 28.8784C37.6538 28.8784 35.9218 27.5748 34.4766 25.5852C32.7385 23.1919 32.0711 20.7125 32.9871 20.0473C33.1512 19.9335 33.3475 19.8754 33.5472 19.8817ZM33.5472 19.3095C33.2264 19.3023 32.9119 19.3988 32.6503 19.5845C32.002 20.0555 31.836 21.0262 32.1832 22.3172C32.5764 23.6175 33.1958 24.8384 34.013 25.9237C35.5707 28.0676 37.4191 29.4528 38.7227 29.4528C39.0434 29.4601 39.3579 29.3638 39.6195 29.1782C41.0126 28.1658 39.9884 25.2241 38.2569 22.8403C36.6996 20.6969 34.8507 19.3116 33.5472 19.3112V19.3095Z" fill="#0A51A1"/>
<path d="M32.4582 20.4827C33.5167 20.4827 35.084 22.1929 36.1616 24.6132C37.3648 27.3154 37.5017 29.8791 36.4658 30.3397C36.3562 30.3877 36.2378 30.412 36.1182 30.4109C35.0597 30.4109 33.4924 28.7007 32.4148 26.2804C31.2116 23.5782 31.0747 21.0145 32.1106 20.5539C32.2202 20.5059 32.3386 20.4816 32.4582 20.4827ZM32.4582 19.9104C32.2584 19.9093 32.0606 19.9505 31.8777 20.0312C30.3048 20.7316 30.6945 23.8224 31.8929 26.5133C32.8832 28.738 34.5743 30.9832 36.119 30.9832C36.3191 30.9844 36.517 30.9432 36.7 30.8624C38.2729 30.1619 37.8832 27.0712 36.6852 24.3803C35.6945 22.1556 34.003 19.9108 32.4582 19.9104Z" fill="#0A51A1"/>
<path d="M41.4906 12.9473C43.7713 12.9473 45.5116 13.5634 45.6102 14.5024C45.7284 15.6287 43.4398 16.7923 40.4981 17.1013C40.026 17.1514 39.5516 17.1768 39.0768 17.1773C36.7965 17.1773 35.0558 16.5612 34.9576 15.6222C34.839 14.4959 37.128 13.3323 40.0693 13.0233C40.5414 12.9732 41.0158 12.9478 41.4906 12.9473ZM41.4906 12.375C40.9959 12.3757 40.5016 12.4021 40.0097 12.4541C38.6569 12.5726 37.3356 12.9287 36.1065 13.5061C34.9142 14.1122 34.3041 14.8848 34.388 15.6821C34.5183 16.9383 36.3607 17.7496 39.0764 17.7496C39.571 17.749 40.0653 17.7226 40.5572 17.6705C41.9101 17.5523 43.2315 17.1962 44.4605 16.6185C45.6524 16.0124 46.2629 15.2398 46.179 14.4425C46.0486 13.1867 44.2067 12.375 41.4906 12.375Z" fill="#01A0C6"/>
<path d="M39.0772 15.0799C39.5519 15.0804 40.0261 15.1058 40.4981 15.1559C43.4402 15.4649 45.7288 16.6285 45.6102 17.7548C45.5116 18.6933 43.7718 19.3099 41.4905 19.3099C41.0158 19.3094 40.5414 19.284 40.0692 19.2339C37.1276 18.9249 34.839 17.7613 34.9576 16.635C35.0562 15.696 36.7965 15.0799 39.0772 15.0799ZM39.0772 14.5076C36.3606 14.5076 34.5209 15.3193 34.3888 16.5751C34.3049 17.3724 34.915 18.145 36.1073 18.7511C37.3364 19.3286 38.6578 19.6847 40.0106 19.8031C40.5025 19.8553 40.9968 19.8817 41.4914 19.8822C44.2076 19.8822 46.0482 19.0705 46.1803 17.8147C46.2641 17.0174 45.6536 16.2448 44.4618 15.6387C43.2326 15.0613 41.9113 14.7052 40.5585 14.5867C40.0666 14.5347 39.5723 14.5083 39.0777 14.5076H39.0772Z" fill="#01A0C6"/>
<path d="M37.0294 16.7232C38.2018 16.7495 39.3633 16.9546 40.4738 17.3316C43.2873 18.244 45.2839 19.86 44.9337 20.938C44.7403 21.5342 43.8687 21.8405 42.6512 21.8405C41.4787 21.8144 40.3172 21.6093 39.2067 21.2322C36.3932 20.3197 34.3966 18.7042 34.7469 17.6257C34.9402 17.0296 35.8123 16.7228 37.0294 16.7232ZM37.0294 16.151C35.479 16.151 34.4749 16.612 34.2029 17.4489C33.9552 18.2114 34.3914 19.0939 35.4312 19.9347C36.5135 20.7549 37.7318 21.378 39.0303 21.7753C40.1984 22.1693 41.4196 22.3836 42.652 22.411C44.2028 22.411 45.207 21.95 45.479 21.1127C46.0108 19.475 43.4533 17.697 40.6515 16.7862C39.4833 16.3923 38.262 16.1781 37.0294 16.151Z" fill="#01A0C6"/>
<path d="M35.6706 18.015C36.7782 18.015 38.3833 18.5204 39.9984 19.4529C42.5599 20.9302 44.1776 22.9255 43.6114 23.9062C43.4024 24.2682 42.9245 24.4415 42.2762 24.4415C41.1686 24.4415 39.5635 23.9362 37.9484 23.0037C35.3869 21.5264 33.7692 19.5311 34.3354 18.5504C34.5444 18.1884 35.0223 18.015 35.6711 18.015M35.6711 17.4428C34.5496 17.4428 34.056 17.8895 33.8396 18.2645C33.439 18.9597 33.6819 19.913 34.5248 20.9515C35.4127 21.9789 36.4748 22.8416 37.6625 23.4999C39.3049 24.4481 41.03 25.0147 42.2766 25.0147C43.3976 25.0147 43.8913 24.568 44.1076 24.193C44.9684 22.7017 42.8367 20.4301 40.2839 18.9575C38.641 18.0094 36.9164 17.4428 35.6698 17.4428H35.6711Z" fill="#01A0C6"/>
<path d="M38.7227 3.37749C38.9223 3.37109 39.1187 3.42914 39.2828 3.54304C40.1992 4.20872 39.5322 6.68807 37.7937 9.08096C36.3476 11.0706 34.6165 12.3742 33.5472 12.3742C33.3475 12.3804 33.1512 12.3224 32.9871 12.2086C32.0711 11.5429 32.7381 9.06357 34.4766 6.67069C35.9222 4.68061 37.6538 3.37749 38.7227 3.37749ZM38.7227 2.80524C37.4191 2.80524 35.5707 4.19047 34.013 6.33438C33.1958 7.41967 32.5764 8.64051 32.1832 9.94086C31.8356 11.2322 32.002 12.2025 32.6503 12.6735C32.9118 12.8594 33.2264 12.9559 33.5472 12.9486C34.8507 12.9486 36.6996 11.5633 38.2569 9.41944C39.9884 7.03612 41.0126 4.09401 39.6195 3.08202C39.358 2.89623 39.0434 2.79976 38.7227 2.80697V2.80524Z" fill="#018D54"/>
<path d="M40.8483 5.40756C41.0043 5.39598 41.1609 5.41778 41.3077 5.4715C41.4546 5.52522 41.5883 5.60963 41.7 5.7191C42.4578 6.56076 41.2902 8.84762 39.0929 10.8268C37.4465 12.3085 35.6897 13.1984 34.5926 13.1984C34.4366 13.2101 34.2799 13.1883 34.1329 13.1346C33.986 13.0809 33.8522 12.9964 33.7405 12.8869C32.9831 12.0452 34.1507 9.75837 36.3476 7.77914C37.9935 6.29744 39.7507 5.40756 40.8479 5.40756M40.8479 4.8353C39.5613 4.8353 37.6903 5.80036 35.9648 7.35549C33.7757 9.32646 32.1623 11.9918 33.3142 13.2714C33.4783 13.4423 33.6775 13.5756 33.898 13.662C34.1186 13.7484 34.3552 13.7859 34.5917 13.772C35.8783 13.772 37.7493 12.8069 39.4748 11.2518C41.6639 9.28083 43.2773 6.61594 42.1254 5.33629C41.9614 5.16529 41.7622 5.03192 41.5417 4.94542C41.3211 4.85892 41.0844 4.82135 40.8479 4.8353Z" fill="#018D54"/>
<path d="M42.2761 7.81477C42.9244 7.81477 43.4024 7.98858 43.6114 8.35053C44.1763 9.3308 42.5599 11.3248 39.9984 12.8039C38.3824 13.7364 36.7778 14.2413 35.6706 14.2413C35.0223 14.2413 34.5439 14.0675 34.3349 13.7059C33.77 12.7252 35.3869 10.7312 37.9479 9.25259C39.5634 8.32012 41.1685 7.81477 42.2757 7.81477M42.2757 7.24252C41.0295 7.24252 39.3045 7.80739 37.662 8.75724C36.4744 9.41583 35.4123 10.2787 34.5244 11.3061C33.6818 12.3442 33.4381 13.2984 33.8391 13.9927C34.0564 14.3673 34.5491 14.8144 35.6706 14.8144C36.9172 14.8144 38.6418 14.2495 40.2847 13.3001C42.8358 11.8271 44.968 9.55545 44.1085 8.06462C43.8912 7.68963 43.3985 7.24252 42.277 7.24252H42.2757Z" fill="#018D54"/>
<path d="M42.6516 10.4184C43.8682 10.4184 44.7407 10.7252 44.9341 11.3213C45.2839 12.3985 43.2873 14.0123 40.4742 14.9278C39.3637 15.3048 38.2022 15.51 37.0298 15.5361C35.8131 15.5361 34.9406 15.2294 34.7473 14.6332C34.3975 13.556 36.3941 11.9422 39.2071 11.0267C40.3176 10.6497 41.4791 10.4445 42.6516 10.4184ZM42.6516 9.84614C41.4191 9.87354 40.198 10.0879 39.0299 10.4818C37.7314 10.8792 36.513 11.5022 35.4308 12.3224C34.391 13.1632 33.9534 14.0457 34.2024 14.8083C34.4744 15.6456 35.4786 16.1066 37.0294 16.1066C38.2618 16.0793 39.4829 15.8649 40.651 15.471C43.4528 14.5585 46.0104 12.7822 45.4785 11.1445C45.2065 10.3072 44.2023 9.84614 42.6516 9.84614Z" fill="#018D54"/>
<path d="M30.1392 0.572258C31.2716 0.572258 32.1893 2.96992 32.1893 5.92811C32.1893 8.88629 31.2716 11.284 30.1392 11.284C29.0069 11.284 28.0887 8.88586 28.0887 5.92811C28.0887 2.97035 29.0064 0.572258 30.1392 0.572258ZM30.1392 0C28.4172 0 27.5165 2.98252 27.5165 5.92811C27.5165 8.87369 28.4177 11.8566 30.1392 11.8566C31.8608 11.8566 32.762 8.87413 32.762 5.92811C32.762 2.98209 31.8608 0 30.1392 0Z" fill="#99CF16"/>
<path d="M33.2047 0.894671C33.2614 0.894543 33.3179 0.900367 33.3733 0.912051C34.4809 1.14756 34.8798 3.68383 34.2654 6.57684C33.681 9.32516 32.3922 11.4069 31.315 11.4069C31.2584 11.4071 31.2019 11.4012 31.1464 11.3895C30.0389 11.154 29.6395 8.61776 30.2544 5.72432C30.8384 2.97644 32.1276 0.894671 33.2047 0.894671ZM33.2047 0.322413C31.5644 0.322413 30.2353 3.05987 29.6943 5.60613C29.0816 8.48741 29.3432 11.592 31.0274 11.9501C31.1219 11.9702 31.2184 11.9802 31.315 11.9801C32.9553 11.9801 34.2845 9.2426 34.825 6.69633C35.4377 3.81462 35.1766 0.710436 33.4924 0.352394C33.3978 0.332293 33.3014 0.322243 33.2047 0.322413Z" fill="#99CF16"/>
<path d="M36.1182 1.84582C36.2378 1.84476 36.3563 1.86905 36.4658 1.91709C37.5004 2.37767 37.3635 4.94175 36.1616 7.64358C35.0845 10.0638 33.5172 11.7737 32.4583 11.7737C32.3387 11.7747 32.2202 11.7504 32.1106 11.7024C31.0761 11.2418 31.2125 8.67816 32.4148 5.9759C33.492 3.55608 35.0593 1.84582 36.1182 1.84582ZM36.1182 1.27313C34.5735 1.27313 32.8823 3.51828 31.8921 5.743C30.6937 8.4344 30.3039 11.5251 31.8769 12.2251C32.0598 12.3061 32.2578 12.3472 32.4578 12.3459C34.0025 12.3459 35.6937 10.1012 36.6844 7.87648C37.8823 5.18508 38.2721 2.09393 36.6991 1.39393C36.5162 1.31314 36.3182 1.27197 36.1182 1.27313Z" fill="#99CF16"/>
<path d="M27.0733 0.894668C28.15 0.894668 29.4397 2.97643 30.0241 5.72432C30.6389 8.61776 30.2413 11.1558 29.132 11.3895C29.0766 11.4013 29.0201 11.4071 28.9634 11.4069C27.8867 11.4069 26.5975 9.32515 26.0131 6.57684C25.3982 3.68383 25.7958 1.14538 26.9047 0.912047C26.9601 0.900367 27.0166 0.894543 27.0733 0.894668ZM27.0733 0.322409C26.9768 0.322225 26.8805 0.332275 26.7861 0.352391C25.1015 0.710432 24.8407 3.81462 25.453 6.69633C25.9939 9.24086 27.3214 11.98 28.963 11.98C29.0597 11.9802 29.1561 11.9702 29.2507 11.9501C30.9348 11.592 31.196 8.4874 30.5837 5.60613C30.0428 3.0616 28.7153 0.322844 27.0733 0.322409Z" fill="#99CF16"/>
<path d="M18.0032 7.81477C19.1104 7.81477 20.7155 8.32012 22.3306 9.25259C24.8942 10.7299 26.5097 12.7252 25.9436 13.7059C25.7346 14.0679 25.2566 14.2413 24.6079 14.2413C23.5003 14.2413 21.8952 13.7359 20.2801 12.8039C17.7164 11.3265 16.1005 9.3308 16.6671 8.35053C16.8761 7.98815 17.3545 7.81477 18.0032 7.81477ZM18.0028 7.24252C16.8817 7.24252 16.3881 7.6892 16.1717 8.06462C15.7707 8.75985 16.014 9.71274 16.8565 10.7512C17.7445 11.7788 18.8068 12.6416 19.9946 13.3001C21.6371 14.2482 23.3621 14.8144 24.6083 14.8144C25.7298 14.8144 26.2234 14.3677 26.4398 13.9927C27.3006 12.5015 25.1684 10.2302 22.616 8.75724C20.9736 7.80912 19.2485 7.24252 18.0019 7.24252H18.0028Z" fill="#FFBF00"/>
<path d="M19.4306 5.40799C20.5278 5.40799 22.2849 6.29744 23.9309 7.77958C26.1291 9.75924 27.2966 12.0457 26.538 12.8873C26.4263 12.9969 26.2925 13.0813 26.1456 13.1351C25.9986 13.1888 25.8419 13.2105 25.6859 13.1989C24.5892 13.1989 22.8316 12.3094 21.1856 10.8273C18.9874 8.84762 17.8198 6.5612 18.5785 5.71954C18.6901 5.61002 18.8239 5.52558 18.9707 5.47186C19.1176 5.41813 19.2746 5.39636 19.4306 5.40799ZM19.4302 4.83573C19.1937 4.82181 18.957 4.8594 18.7364 4.9459C18.5158 5.0324 18.3167 5.16575 18.1527 5.33673C17.0008 6.61638 18.6141 9.28127 20.8032 11.2522C22.5287 12.8056 24.3997 13.7724 25.6859 13.7724C25.9224 13.7864 26.159 13.7488 26.3796 13.6624C26.6002 13.576 26.7993 13.4427 26.9634 13.2719C28.1157 11.9922 26.5024 9.32689 24.3128 7.35593C22.5874 5.80253 20.7168 4.83573 19.4302 4.83573Z" fill="#FFBF00"/>
<path d="M21.5558 3.37749C22.6247 3.37749 24.3567 4.68104 25.8019 6.67069C27.54 9.06401 28.2074 11.5434 27.2914 12.2086C27.1273 12.3224 26.931 12.3804 26.7313 12.3742C25.662 12.3742 23.93 11.0706 22.4848 9.08096C20.7467 6.68764 20.0793 4.20829 20.9957 3.54304C21.1598 3.42914 21.3562 3.37109 21.5558 3.37749ZM21.5558 2.80524C21.2351 2.79809 20.9206 2.89454 20.659 3.08028C19.2659 4.09227 20.2901 7.03438 22.0216 9.4177C23.5794 11.5616 25.4278 12.9468 26.7313 12.9468C27.0521 12.9542 27.3667 12.8577 27.6282 12.6718C28.2765 12.2008 28.4425 11.2305 28.0953 9.93912C27.7021 8.63877 27.0827 7.41793 26.2655 6.33264C24.7078 4.18874 22.8594 2.8035 21.5558 2.8035V2.80524Z" fill="#FFBF00"/>
<path d="M24.1603 1.84583C25.2188 1.84583 26.7861 3.55608 27.8637 5.97634C29.0669 8.6786 29.2037 11.2422 28.1678 11.7028C28.0583 11.7509 27.9398 11.7752 27.8202 11.7741C26.7618 11.7741 25.1944 10.0638 24.1168 7.64401C22.9137 4.94219 22.7768 2.37811 23.8127 1.91752C23.9222 1.86947 24.0407 1.84519 24.1603 1.84626M24.1603 1.274C23.9604 1.27293 23.7626 1.31409 23.5798 1.3948C22.0068 2.09524 22.3966 5.18595 23.595 7.87735C24.5853 10.1021 26.2764 12.3468 27.8211 12.3468C28.0211 12.3481 28.2191 12.307 28.402 12.226C29.975 11.5255 29.5852 8.43483 28.3873 5.74387C27.3966 3.51915 25.705 1.27444 24.1603 1.274Z" fill="#FFBF00"/>
<path d="M23.2491 16.7228C24.4658 16.7228 25.3383 17.0291 25.5316 17.6253C25.8814 18.702 23.8848 20.3162 21.0718 21.2318C19.9613 21.6088 18.7998 21.814 17.6273 21.8401C16.4107 21.8401 15.5382 21.5333 15.3448 20.9376C14.995 19.8609 16.9916 18.2462 19.8047 17.3311C20.9152 16.9542 22.0767 16.7491 23.2491 16.7228ZM23.2491 16.1505C22.0167 16.1778 20.7955 16.392 19.6274 16.7858C18.3288 17.1831 17.1105 17.8064 16.0283 18.6268C14.9885 19.4672 14.551 20.3497 14.7999 21.1123C15.072 21.9496 16.0761 22.4106 17.6269 22.4106C18.8594 22.3833 20.0805 22.1689 21.2486 21.7749C24.0499 20.8646 26.6079 19.0861 26.0761 17.4484C25.8041 16.6116 24.7999 16.1505 23.2491 16.1505Z" fill="#FF5A00"/>
<path d="M21.2021 15.0795C23.4825 15.0795 25.2227 15.6956 25.3218 16.6346C25.44 17.7609 23.1492 18.9245 20.2097 19.2334C19.7376 19.2836 19.2631 19.3089 18.7884 19.3095C16.508 19.3095 14.7674 18.6933 14.6687 17.7543C14.5505 16.6281 16.8391 15.4644 19.7808 15.1555C20.2529 15.1054 20.7273 15.08 21.2021 15.0795ZM21.2021 14.5072C20.7075 14.5077 20.2132 14.5341 19.7213 14.5863C18.3685 14.7049 17.0472 15.061 15.818 15.6382C14.6253 16.2444 14.017 17.017 14.0995 17.8143C14.2299 19.0701 16.0722 19.8817 18.7884 19.8817C19.2832 19.8812 19.7776 19.8548 20.2696 19.8026C21.6225 19.6842 22.9438 19.3281 24.1729 18.7507C25.3648 18.1445 25.9748 17.372 25.891 16.5746C25.7606 15.3189 23.9183 14.5072 21.2021 14.5072Z" fill="#FF5A00"/>
<path d="M18.7884 12.9468C19.2632 12.9474 19.7376 12.9728 20.2097 13.0229C23.1514 13.3318 25.4404 14.4955 25.3218 15.6217C25.2231 16.5607 23.4829 17.1769 21.2021 17.1769C20.7274 17.1763 20.2529 17.151 19.7808 17.1008C16.8387 16.7919 14.5506 15.6282 14.6687 14.502C14.7674 13.563 16.5076 12.9468 18.7884 12.9468ZM18.7884 12.3746C16.0722 12.3746 14.2316 13.1863 14.1 14.442C14.0165 15.2394 14.6266 16.0119 15.8185 16.6181C17.0475 17.1957 18.3689 17.5518 19.7217 17.67C20.2138 17.7222 20.7082 17.7486 21.203 17.7491C23.9196 17.7491 25.7598 16.9379 25.8914 15.6817C25.9753 14.8844 25.3652 14.1118 24.1733 13.5056C22.9442 12.9284 21.6229 12.5723 20.2701 12.4537C19.778 12.4017 19.2832 12.3753 18.7884 12.3746Z" fill="#FF5A00"/>
<path d="M17.6274 10.4184C18.7998 10.4445 19.9613 10.6496 21.0718 11.0267C23.8853 11.9392 25.8819 13.5547 25.5316 14.6332C25.3383 15.2294 24.4662 15.5361 23.2491 15.5361C22.0767 15.51 20.9152 15.3049 19.8047 14.9278C16.9912 14.0153 14.9946 12.3998 15.3448 11.3213C15.5382 10.7252 16.4103 10.4184 17.6274 10.4184ZM17.6274 9.84614C16.0766 9.84614 15.0728 10.3072 14.8008 11.1445C14.5531 11.907 14.9894 12.7896 16.0292 13.6303C17.1115 14.4505 18.3298 15.0736 19.6283 15.471C20.7964 15.8649 22.0175 16.0793 23.25 16.1066C24.8008 16.1066 25.805 15.6456 26.077 14.8083C26.6088 13.1706 24.0508 11.3926 21.2495 10.4818C20.0813 10.0878 18.8599 9.87345 17.6274 9.84614Z" fill="#FF5A00"/>
<path d="M27.8206 20.4827C27.9402 20.4816 28.0587 20.5059 28.1683 20.5539C29.2028 21.0145 29.0664 23.5782 27.8641 26.2804C26.7869 28.7007 25.2196 30.4109 24.1607 30.4109C24.0411 30.412 23.9226 30.3877 23.8131 30.3397C22.7785 29.8791 22.915 27.3154 24.1173 24.6132C25.1944 22.1929 26.7617 20.4827 27.8206 20.4827ZM27.8206 19.9104C26.2759 19.9104 24.5848 22.1556 23.5945 24.3803C22.3961 27.0717 22.0064 30.1624 23.5793 30.8624C23.7623 30.9432 23.9603 30.9843 24.1603 30.9832C25.705 30.9832 27.3961 28.738 28.3868 26.5133C29.5848 23.8219 29.9745 20.7312 28.4016 20.0312C28.2186 19.9504 28.0206 19.9092 27.8206 19.9104Z" fill="#F0047F"/>
<path d="M26.7313 19.8817C26.9309 19.8754 27.1273 19.9334 27.2914 20.0473C28.2074 20.713 27.5404 23.1923 25.8019 25.5852C24.3563 27.5753 22.6247 28.8784 21.5558 28.8784C21.3562 28.8847 21.1598 28.8267 20.9957 28.7128C20.0793 28.0472 20.7463 25.5678 22.4848 23.1749C23.9309 21.1853 25.662 19.8817 26.7313 19.8817ZM26.7313 19.3095C25.4278 19.3095 23.5793 20.6947 22.0216 22.8386C20.2896 25.2224 19.2659 28.164 20.659 29.1765C20.9206 29.3621 21.2351 29.4584 21.5558 29.4511C22.8594 29.4511 24.7078 28.0658 26.2655 25.9219C27.0826 24.8367 27.702 23.6158 28.0953 22.3155C28.4429 21.0245 28.2765 20.0538 27.6282 19.5828C27.3666 19.397 27.0521 19.3006 26.7313 19.3077V19.3095Z" fill="#F0047F"/>
<path d="M25.6872 19.0583C25.8432 19.0468 25.9999 19.0686 26.1468 19.1223C26.2937 19.176 26.4275 19.2604 26.5393 19.3699C27.2966 20.2115 26.1291 22.4984 23.9322 24.4776C22.2862 25.9593 20.529 26.8492 19.4319 26.8492C19.2759 26.8609 19.1193 26.8391 18.9724 26.7854C18.8256 26.7316 18.6918 26.6472 18.5802 26.5377C17.8224 25.696 18.99 23.4091 21.1873 21.4299C22.8337 19.9482 24.5905 19.0583 25.6872 19.0583ZM25.6872 18.4861C24.4001 18.4861 22.5291 19.4511 20.8045 21.0063C18.615 22.9772 17.0016 25.6425 18.154 26.9222C18.318 27.0931 18.5172 27.2263 18.7378 27.3127C18.9583 27.3991 19.195 27.4367 19.4315 27.4228C20.7185 27.4228 22.5895 26.4577 24.3145 24.9026C25.3394 24.0116 26.199 22.9468 26.8539 21.7571C27.4622 20.5665 27.5013 19.5845 26.9651 18.9871C26.8011 18.816 26.602 18.6827 26.3814 18.5961C26.1609 18.5096 25.9237 18.4721 25.6872 18.4861Z" fill="#F0047F"/>
<path d="M24.6083 18.015C25.2566 18.015 25.735 18.1889 25.944 18.5504C26.5089 19.5311 24.8925 21.5251 22.331 23.0037C20.7155 23.9362 19.1103 24.4415 18.0036 24.4415C17.3549 24.4415 16.8769 24.2677 16.6679 23.9062C16.1031 22.9255 17.7195 20.9315 20.2809 19.4529C21.8965 18.52 23.5007 18.015 24.6083 18.015ZM24.6087 17.4428C23.3625 17.4428 21.6379 18.0077 19.9955 18.9575C18.8076 19.6157 17.7453 20.4785 16.8574 21.506C16.0153 22.5444 15.7711 23.4986 16.1726 24.193C16.3898 24.5676 16.8826 25.0147 18.0041 25.0147C19.2503 25.0147 20.9753 24.4498 22.6178 23.4999C25.1688 22.0274 27.3014 19.7557 26.4415 18.2645C26.2243 17.8899 25.7315 17.4428 24.61 17.4428H24.6087Z" fill="#F0047F"/>
<path d="M0.00119032 16.5351C-0.0209777 14.9799 0.279513 13.4371 0.883692 12.004C1.4419 10.6939 2.26298 9.51223 3.29613 8.53217C4.33774 7.55814 5.56407 6.80283 6.90261 6.31092C8.31936 5.78535 9.81972 5.52123 11.3308 5.5314C12.8855 5.52206 14.4298 5.78591 15.8932 6.31092C17.2173 6.76744 18.4375 7.48261 19.4827 8.41485L15.1836 13.5925C14.7973 13.0888 14.2909 12.6899 13.7106 12.4324C13.0894 12.1608 12.4172 12.0254 11.7392 12.0352C11.1753 12.0306 10.6159 12.1355 10.092 12.3442C9.58776 12.5461 9.13165 12.8518 8.75322 13.2415C8.35975 13.651 8.05424 14.1368 7.85551 14.6688C7.6328 15.2662 7.52303 15.8998 7.53179 16.5373C7.52091 17.1666 7.63584 17.7918 7.86984 18.3761C8.08219 18.8959 8.39191 19.3704 8.78233 19.774C9.16049 20.1639 9.61668 20.4697 10.1211 20.6712C10.6353 20.8781 11.1849 20.9831 11.7392 20.9802C12.4628 21.0002 13.1787 20.8276 13.8136 20.4801C14.3463 20.1867 14.8123 19.7859 15.1819 19.303L19.4779 24.452C18.4835 25.4278 17.3028 26.1935 16.0062 26.7032C13.0734 27.8059 9.84269 27.8213 6.89957 26.7467C5.55936 26.2444 4.33314 25.4791 3.29309 24.4959C2.26428 23.5121 1.44386 22.3314 0.880651 21.0241C0.278135 19.6053 -0.0214134 18.0763 0.00119032 16.5351Z" fill="#187C9C"/>
</svg>
