<svg width="113" height="113" viewBox="0 0 113 113" fill="none" xmlns="http://www.w3.org/2000/svg">
<circle cx="56.5" cy="56.5" r="49.2097" fill="#3690C0"/>
<circle cx="56.5" cy="56.5" r="55.5" stroke="#3690C0" stroke-width="2"/>
<path d="M51.2054 58.961C48.7159 56.0456 48.5848 53.0647 50.7468 49.8873C48.4538 47.8892 46.1281 45.9238 43.9006 43.9583C42.9179 44.5152 42.0662 45.1703 41.0835 45.5634C36.2683 47.5943 30.7651 44.3842 30.0773 39.2414C29.3566 33.902 33.7788 29.3816 39.1181 30.0695C39.7405 30.135 40.3629 30.3643 40.9853 30.5608C41.5421 30.7246 41.8042 31.0849 41.5749 31.6418C41.3784 32.1987 40.887 32.1004 40.4284 31.9366C36.6614 30.5936 32.8616 32.4935 31.6823 36.2605C30.3721 40.5516 33.9426 45.0393 38.4302 44.679C41.968 44.4169 44.4902 41.7964 44.6868 38.2259C44.6868 37.7346 44.8833 37.407 45.4402 37.407C45.9643 37.407 46.1608 37.7673 46.1608 38.2587C46.1608 39.8965 45.6367 41.3706 44.7195 42.7463C47.078 44.7773 49.4693 46.8409 51.6967 48.7736C52.7777 48.4133 53.7277 47.9219 54.7104 47.7581C57.4947 47.2668 59.6894 48.315 61.2945 50.608C61.6221 51.0666 61.8514 51.1648 62.3755 51.0011C64.1443 50.5097 65.9459 50.0511 67.6821 49.5925C67.551 48.6753 67.3545 47.8236 67.3545 46.972C67.3217 42.4843 70.794 38.9466 75.2816 38.7828C79.4418 38.6517 83.045 41.8947 83.5036 46.1858C83.9294 50.2149 80.9486 54.113 76.985 54.8008C73.5128 55.3905 70.7284 54.2112 68.6975 51.3286C68.4682 51.0011 68.2717 50.9355 67.8786 51.0338C66.0115 51.5579 64.1443 52.0165 62.2772 52.5079C62.2772 53.4578 62.3427 54.375 62.2772 55.2594C62.1789 56.3404 61.6876 57.2904 61.0324 58.1748C60.9014 58.3386 60.8686 58.6989 60.9669 58.8299C62.2444 60.6643 63.5547 62.4659 64.8977 64.3003C67.8786 62.9245 70.8922 62.859 73.8403 64.3658C75.9695 65.4468 77.4436 67.1502 78.3608 69.3776C80.1624 73.8981 78.2953 79.0409 73.9714 81.4321C69.7785 83.7579 64.4064 82.5459 61.5565 78.6478C58.805 74.8808 58.805 68.8208 63.6857 65.0537C62.3755 63.2193 61.0324 61.385 59.6894 59.5178C58.3791 60.3695 57.0361 60.8281 55.5293 60.6643C54.6449 60.566 53.8259 60.2385 52.9743 60.0419C52.7777 59.9764 52.4502 59.9109 52.3191 60.0419C50.3865 61.778 48.5193 63.5469 46.5867 65.3158C47.6349 66.495 48.3556 67.7725 48.7159 69.2466C49.7313 73.6688 46.7505 78.1564 42.2955 78.9426C37.6441 79.7615 33.3857 76.6496 32.7633 71.9654C32.3702 68.9845 33.9753 65.6433 36.5303 64.1365C39.3802 62.4659 42.23 62.4987 45.0799 64.1365C45.2437 64.2348 45.5385 64.2676 45.6367 64.202C47.5366 62.4659 49.4038 60.7298 51.2709 58.961H51.2054ZM77.5091 72.9809C77.5091 68.4604 73.8076 64.6934 69.2544 64.7262C64.6029 64.7589 61.0979 68.4604 61.0652 72.9481C61.0652 77.4686 64.7995 81.1701 69.2871 81.1701C73.8076 81.1701 77.5091 77.4358 77.5091 72.9481V72.9809ZM75.4127 53.4906C79.0487 53.4906 82.0623 50.5425 82.0623 46.9392C82.0623 43.2705 79.1142 40.2896 75.4782 40.2568C71.7439 40.2568 68.8286 43.1722 68.7958 46.972C68.7958 50.5097 71.8094 53.4578 75.4127 53.4578V53.4906ZM40.6905 77.6323C44.3592 77.6323 47.3728 74.717 47.3401 71.0155C47.3401 67.4122 44.654 64.4641 40.7887 64.3658C37.0872 64.3003 34.1063 67.3139 34.1063 71.0155C34.1063 74.6187 37.0545 77.5996 40.6905 77.6323ZM55.7586 59.2558C58.6084 59.2558 60.9014 56.9956 60.9014 54.2112C60.9014 51.3941 58.6084 49.0684 55.8241 49.0684C52.9743 49.0684 50.6813 51.3614 50.6813 54.2112C50.6813 56.9956 52.9415 59.2885 55.7258 59.2885L55.7586 59.2558Z" fill="white"/>
<path d="M43.7041 34.6882C43.5403 34.4261 43.2455 34.1313 43.2127 33.8365C43.1472 33.3779 43.5075 33.0503 43.9661 33.1486C44.2282 33.2141 44.5885 33.6072 44.5885 33.8692C44.5885 34.1313 44.2282 34.3934 44.0317 34.6554C43.9334 34.6554 43.8351 34.6554 43.7041 34.6554V34.6882Z" fill="white"/>
<path d="M75.3799 73.0792C75.2489 76.5187 72.2025 79.5323 68.7303 79.5978C68.1734 79.5978 67.6821 79.5323 67.6493 78.9099C67.6493 78.2876 68.1079 78.1565 68.6648 78.1238C71.3836 78.0255 73.8076 75.667 73.9059 73.0137C73.9386 72.1948 74.2007 71.8345 74.692 71.8345C75.1834 71.8345 75.4127 72.2276 75.3799 73.0465V73.0792Z" fill="white"/>
<path d="M79.6711 47.5616C79.7366 48.5116 79.409 49.4943 78.9504 50.4115C78.7211 50.8701 78.328 51.0994 77.8694 50.8701C77.3781 50.6408 77.3781 50.1822 77.6401 49.7236C78.8521 47.3323 78.2625 45.0394 76.1006 43.5325C75.6747 43.2377 75.5109 42.8447 75.8057 42.4188C76.1006 41.9602 76.4936 42.0912 76.9195 42.3205C78.6556 43.3688 79.7038 45.3014 79.7038 47.5616H79.6711Z" fill="white"/>
<path d="M45.5057 70.3276C45.3747 73.0792 44.2937 74.8808 42.1318 76.0273C41.6732 76.2893 41.1491 76.4203 40.8542 75.8307C40.5594 75.2739 40.9525 74.9463 41.4439 74.6842C43.6058 73.6033 44.523 71.1793 43.6713 68.919C43.4748 68.4277 43.442 68.0018 43.9661 67.7398C44.4247 67.5105 44.8178 67.7398 45.0471 68.4277C45.2764 69.1483 45.4074 69.869 45.5057 70.3276Z" fill="white"/>
</svg>
