<svg width="113" height="113" viewBox="0 0 113 113" fill="none" xmlns="http://www.w3.org/2000/svg">
<circle cx="56.5" cy="56.5" r="49.2097" fill="#3690C0"/>
<circle cx="56.5" cy="56.5" r="55.5" stroke="#3690C0" stroke-width="2"/>
<path d="M36.7778 80C36.3704 79.8518 35.9259 79.7407 35.5556 79.5555C33.8889 78.7037 33 77.3704 33 75.5185C33 67.037 33 58.5185 33 50.037C33 48.963 33.6667 48.2963 34.7778 48.2963C35.7407 48.2963 36.7037 48.2963 37.6667 48.2963C37.7037 48.037 37.7407 47.8148 37.7778 47.5926C37.9259 46.9259 38.4815 46.4444 39.1852 46.4444C41.1481 46.4444 43.1111 46.4444 45.1111 46.4444C45.5926 46.4444 45.9259 46.7778 45.8889 47.1852C45.8889 47.5926 45.5556 47.8889 45.0741 47.8889C43.3333 47.8889 41.5926 47.8889 39.8519 47.8889C39.6667 47.8889 39.5185 47.8889 39.2963 47.8889V70.5555C39.4444 70.5555 39.6296 70.5555 39.7778 70.5555C41.3704 70.5555 42.9259 70.5555 44.5185 70.5555C45.1482 70.5555 45.5185 71 45.3333 71.5185C45.1852 71.9259 44.8519 72 44.4815 72C42.9259 72 41.4074 72 39.8519 72C39.6667 72 39.5185 72 39.2963 72C39.2963 72.9629 39.2963 73.8889 39.2963 74.8148C39.2963 74.9259 39.5185 75.0741 39.6667 75.1852C39.7407 75.2222 39.8518 75.1852 39.963 75.1852C44.8148 75.1852 49.6667 75.1852 54.5185 75.1852C54.6296 75.1852 54.7778 75.1852 54.8889 75.1852C54.7778 73.7037 53.3333 72.2592 51.7407 72.0741C51.1481 72 50.5555 72 49.9259 72C49.1852 72 48.4444 72 47.7407 72C47.3333 72 47 71.6667 47.037 71.2963C47.037 70.8889 47.2963 70.5555 47.6667 70.5555C49.2593 70.5555 50.8889 70.5555 52.4815 70.7407C53.4444 70.8518 54.2222 71.4444 55 72.1852C55 71.9259 55 71.7407 55 71.5555C55 68.6667 55 65.7778 55 62.8518C55 62.2963 55.2593 62 55.7037 61.9629C56.1852 61.9629 56.4815 62.2592 56.4815 62.8148C56.4815 65.2963 56.4815 67.7778 56.4815 70.2222C56.4815 70.8148 56.4815 71.4074 56.4815 72.1111C56.6296 71.963 56.7407 71.8889 56.8148 71.8148C57.8518 70.9259 59.037 70.4444 60.4444 70.4444C64.1481 70.4444 67.8518 70.4444 71.5926 70.4444H72.2593V69.8518C72.2593 66.7037 72.2593 63.5185 72.2593 60.3704C72.2593 60.2222 72.2593 60.0741 72.2593 59.9259C72.2963 59.4444 72.5926 59.1481 73.037 59.1481C73.4444 59.1481 73.7407 59.4444 73.7778 59.9259C73.7778 60.037 73.7778 60.1111 73.7778 60.2222C73.7778 64.963 73.7778 69.7407 73.7778 74.4815C73.7778 75.5185 73.2963 76.2222 72.4444 76.5185C72.2593 76.5926 72.037 76.5926 71.8148 76.5926C61.1481 76.5926 50.4444 76.5926 39.7778 76.5926C38.6667 76.5926 37.8889 75.8518 37.8148 74.7407C37.8148 74.5926 37.8148 74.4074 37.8148 74.2592C37.8148 66.2963 37.8148 58.2963 37.8148 50.3333C37.8148 50.1111 37.8148 49.9259 37.8148 49.6667C36.8148 49.6667 35.8148 49.6667 34.8519 49.6667C34.7407 49.6667 34.6296 49.8148 34.5926 49.9259C34.5556 50 34.5926 50.1481 34.5926 50.2593C34.5926 58.5555 34.5926 66.8518 34.5926 75.1481C34.5926 76.7037 35.3704 77.8889 36.7407 78.2963C37.1111 78.4074 37.5185 78.4444 37.8889 78.4444C49.8148 78.4444 61.7407 78.4444 73.6667 78.4444C75.6667 78.4444 76.963 77.1481 76.963 75.1852C76.963 66.8518 76.963 58.5185 76.963 50.1852C76.963 49.7778 76.8518 49.5926 76.4074 49.6296C75.5555 49.6296 74.7037 49.6296 73.8148 49.6296C73.8148 49.8518 73.8148 50 73.8148 50.1852C73.8148 52.2592 73.8148 54.3333 73.8148 56.3704C73.8148 56.5185 73.8148 56.6667 73.8148 56.8148C73.7407 57.2222 73.4074 57.5185 73.0741 57.5185C72.6667 57.5185 72.4074 57.2592 72.3704 56.8518C72.3704 56.7037 72.3704 56.5185 72.3704 56.3704C72.3704 53.7407 72.3704 51.1111 72.3704 48.4444V47.7778C72.1852 47.7778 72 47.7778 71.8148 47.7778C70.0741 47.7778 68.2963 47.7778 66.5556 47.7778C66.2963 47.7778 66 47.5926 65.8518 47.4074C65.7407 47.2592 65.7778 46.8889 65.8518 46.7037C65.963 46.5185 66.2593 46.3704 66.4815 46.3704C68.4444 46.3704 70.4074 46.3704 72.4074 46.3704C73.0741 46.3704 73.6296 46.8518 73.7778 47.4815C73.8519 47.7037 73.8518 47.9259 73.8889 48.2222C74.7407 48.2222 75.5926 48.2593 76.4444 48.2222C77.8518 48.1111 78.4815 49.1111 78.4815 50.2222C78.4815 58.4815 78.4815 66.7407 78.4815 75.037C78.4815 77.6667 77.2963 79.2222 74.7407 79.9259C74.7407 79.9259 74.7037 79.9629 74.6667 80H36.963H36.7778ZM56.5185 75.2222C56.6667 75.2222 56.7407 75.2222 56.8518 75.2222C61.7407 75.2222 66.6296 75.2222 71.4815 75.2222C71.5926 75.2222 71.7037 75.2222 71.7778 75.2222C71.9259 75.1481 72.1111 75 72.1111 74.8889C72.1111 73.963 72.1111 73 72.1111 72.1111C72.037 72.1111 72 72.037 71.963 72.037C68.037 72.037 64.0741 72 60.1481 72.037C58.2593 72.037 56.7407 73.4444 56.4815 75.2222H56.5185Z" fill="#FEFEFE"/>
<path d="M56.7777 30C57.3703 30.1481 57.9629 30.2222 58.5184 30.4074C63.2592 31.7407 66.4814 36.3333 66.111 41.2593C65.9629 43.037 65.4444 44.7037 64.4444 46.1852C62.9258 48.5185 61.4073 50.8889 59.9258 53.2593C59.7777 53.4815 59.7036 53.8148 59.7036 54.0741C59.7036 54.8519 59.4814 55.5185 58.7777 55.963C58.6666 56.037 58.6296 56.2222 58.5925 56.3704C58.5555 56.8519 58.5925 57.3333 58.5184 57.7778C58.3333 58.7778 57.5184 59.5185 56.5184 59.6296C55.9999 59.6667 55.4444 59.7037 54.9258 59.6296C53.6295 59.5185 52.7777 58.5926 52.7036 57.2963C52.7036 57.1482 52.7036 57.037 52.7036 56.8889C52.7036 56.4074 52.7036 56 52.1851 55.6667C51.7036 55.3333 51.6295 54.7407 51.5925 54.1852C51.5925 53.8518 51.4814 53.4815 51.2962 53.1852C49.8147 50.8519 48.2962 48.5185 46.7777 46.1481C46.1481 45.1481 45.6666 44.0741 45.4073 42.9259C45.3333 42.5556 45.4073 42.2222 45.7777 42.037C46.111 41.8519 46.4073 41.963 46.6666 42.2222C46.7407 42.3333 46.8147 42.4815 46.8518 42.6296C47.111 43.7778 47.6666 44.8148 48.2962 45.8148C49.7407 48.037 51.1851 50.2963 52.6296 52.5185C52.9258 53 53.111 53.4444 53.074 54.037C53.074 54.2222 53.111 54.4444 53.1481 54.6667C53.2221 54.6667 53.2592 54.6667 53.3333 54.6667C53.1851 52.0741 53.037 49.5185 52.8888 46.8519C52.5925 46.8519 52.2962 46.8519 52.037 46.8519C50.8518 46.8519 49.9258 45.8889 49.8888 44.7407C49.8888 43.4444 50.7036 42.5185 51.9258 42.4074C53.037 42.3333 54.037 43.1852 54.1851 44.3704C54.2221 44.7037 54.2592 45 54.2962 45.3333H56.7777C56.8147 45 56.8518 44.6667 56.8888 44.3333C57.037 43.1852 58.037 42.3333 59.1481 42.4074C60.3703 42.4815 61.2221 43.4444 61.2221 44.6667C61.2221 45.8519 60.3333 46.7778 59.1481 46.8519C58.8518 46.8519 58.5555 46.8519 58.2221 46.8519C58.074 49.4815 57.9258 52.1111 57.7777 54.7037C57.8147 54.7037 57.8888 54.7037 57.9258 54.7407C57.9999 54.5926 58.1481 54.4074 58.111 54.2593C57.9999 53.4444 58.4073 52.8148 58.8147 52.1481C60.2592 49.9259 61.6666 47.7037 63.111 45.4815C66.6666 39.963 63.4444 32.7037 56.9629 31.6296C51.9629 30.8148 47.1851 34.4444 46.6295 39.5185C46.5555 40.0741 46.2592 40.3704 45.8147 40.3333C45.3333 40.2963 45.111 39.9259 45.1851 39.3333C45.7036 34.5556 49.4444 30.7407 54.2221 30.1481C54.2962 30.1481 54.4073 30.0741 54.4814 30.0741C55.2221 30.0741 55.9629 30.0741 56.7407 30.0741L56.7777 30ZM54.4444 46.8148C54.5925 49.4444 54.7407 52.0741 54.9258 54.6667H56.3703C56.5184 52.037 56.6666 49.4444 56.8147 46.8148H54.4444ZM57.111 56.1852H54.2221C54.2962 56.8148 53.8888 57.6667 54.6295 57.963C55.2221 58.1852 56.074 58.1852 56.6666 57.963C57.4073 57.6667 56.9999 56.8519 57.074 56.1852H57.111ZM52.8518 45.3333C52.8518 45 52.8518 44.7407 52.8147 44.4815C52.8147 44.0741 52.5555 43.8518 52.1481 43.8518C51.7407 43.8518 51.5184 44.0741 51.4444 44.4444C51.3703 44.8148 51.5184 45.1482 51.9258 45.2593C52.2221 45.3333 52.5184 45.3333 52.8518 45.3333ZM58.4073 45.3333C58.7777 45.2963 59.111 45.3333 59.4073 45.2222C59.7777 45.1111 59.8888 44.7778 59.8147 44.4444C59.7407 44.1111 59.5184 43.8518 59.1481 43.8518C58.7777 43.8518 58.5555 44.037 58.4814 44.3704C58.4073 44.6667 58.4444 44.963 58.4073 45.3704V45.3333Z" fill="#FEFEFE"/>
<path d="M64.7037 67.074C63.4815 67.074 62.2222 67.074 61 67.074C60.8148 67.074 60.5556 67.074 60.4444 66.9999C60.2593 66.8518 60 66.5925 60 66.4073C60 66.1851 60.1852 65.8888 60.3704 65.7036C60.4815 65.5925 60.7778 65.5925 60.963 65.5925C63.4815 65.5925 66 65.5925 68.5185 65.5925C68.6296 65.5925 68.7407 65.5925 68.8518 65.5925C69.2593 65.6666 69.5556 65.9629 69.5185 66.3703C69.5185 66.7777 69.2593 67.037 68.8518 67.074C68.5926 67.074 68.3333 67.074 68.0741 67.074C66.963 67.074 65.8148 67.074 64.7037 67.074Z" fill="#FEFEFE"/>
<path d="M46.5927 67.074C45.3704 67.074 44.1482 67.074 42.926 67.074C42.7408 67.074 42.5556 67.074 42.4075 67.037C42.0742 66.9629 41.8519 66.7407 41.8519 66.4073C41.8519 66.037 42.0001 65.7777 42.3334 65.6666C42.4816 65.6296 42.6667 65.5925 42.8149 65.5925C45.3704 65.5925 47.926 65.5925 50.4816 65.5925C50.6297 65.5925 50.8519 65.5925 50.963 65.6666C51.1482 65.8518 51.4445 66.1481 51.4075 66.3703C51.4075 66.5925 51.1112 66.8518 50.889 67.037C50.7779 67.1481 50.5556 67.1111 50.3704 67.1111C49.1112 67.1111 47.8519 67.1111 46.5927 67.1111V67.074Z" fill="#FEFEFE"/>
<path d="M46.5926 59.9261C45.2963 59.9261 44 59.9261 42.7037 59.9261C42.074 59.9261 41.7407 59.5557 41.8518 59.0001C41.9629 58.6298 42.2222 58.4446 42.5926 58.4446C45.2592 58.4446 47.9629 58.4446 50.6296 58.4446C51.074 58.4446 51.3703 58.7409 51.4074 59.1483C51.4074 59.5927 51.1111 59.889 50.6296 59.889C49.2963 59.889 47.9259 59.889 46.5926 59.889V59.9261Z" fill="#FEFEFE"/>
<path d="M64.7407 58.4072C66.074 58.4072 67.3703 58.4072 68.7036 58.4072C69.3333 58.4072 69.6666 58.8517 69.5185 59.4072C69.3703 59.8146 69.037 59.8887 68.6666 59.8887C66.7407 59.8887 64.8147 59.8887 62.8888 59.8887C62.2221 59.8887 61.5184 59.8887 60.8518 59.8887C60.2592 59.8887 59.9629 59.5924 59.9629 59.148C59.9629 58.7035 60.2962 58.4072 60.8518 58.4072C62.1481 58.4072 63.4444 58.4072 64.7407 58.4072Z" fill="#FEFEFE"/>
<path d="M46.5926 63.4815C45.2963 63.4815 44.037 63.4815 42.7407 63.4815C42.1482 63.4815 41.8148 63.1852 41.8148 62.7037C41.8148 62.2593 42.1482 62 42.7407 62C45.3333 62 47.9259 62 50.5185 62C51.1111 62 51.4444 62.2963 51.4444 62.7407C51.4444 63.2222 51.1111 63.4444 50.4815 63.4444C49.1852 63.4444 47.9259 63.4444 46.6296 63.4444L46.5926 63.4815Z" fill="#FEFEFE"/>
<path d="M64.7037 62C66.037 62 67.3704 62 68.7037 62C69.2592 62 69.5926 62.3333 69.5185 62.8148C69.4444 63.2593 69.1852 63.4815 68.7407 63.4815C66.0741 63.4815 63.3703 63.4815 60.7037 63.4815C60.2222 63.4815 59.9259 63.1481 59.9259 62.7037C59.9259 62.2963 60.2222 62 60.7037 62C62.037 62 63.3704 62 64.7037 62Z" fill="#FEFEFE"/>
<path d="M44.8147 56.1852C43.6666 56.1852 42.5184 56.1852 41.3332 56.1852C40.7777 56.1852 40.4443 55.8889 40.4443 55.4444C40.4443 55 40.7777 54.7407 41.2962 54.7407C43.6295 54.7407 45.9628 54.7407 48.2591 54.7407C48.7777 54.7407 49.111 55 49.111 55.4815C49.111 55.9259 48.8147 56.2222 48.2591 56.2222C47.074 56.2222 45.9258 56.2222 44.7406 56.2222L44.8147 56.1852Z" fill="#FEFEFE"/>
<path d="M66.4815 56.1852C65.3334 56.1852 64.1852 56.1852 63.0001 56.1852C62.4445 56.1852 62.1482 55.9259 62.1482 55.4815C62.1482 55.037 62.4445 54.7407 62.963 54.7407C65.2963 54.7407 67.6297 54.7407 70.0001 54.7407C70.5186 54.7407 70.8519 55.037 70.8149 55.4815C70.8149 55.9259 70.4815 56.1852 70.0001 56.1852C68.8149 56.1852 67.6297 56.1852 66.4445 56.1852H66.4815Z" fill="#FEFEFE"/>
<path d="M68.4445 38.5925C68.7037 38.7407 68.9259 38.8148 69.1111 38.9629C69.5926 39.3703 70.0741 39.7777 70.5556 40.2222C70.9259 40.5555 71 40.9999 70.7037 41.3333C70.4074 41.6666 70 41.6666 69.5926 41.3333C69.0741 40.8888 68.5556 40.4814 68.1111 39.9999C67.9259 39.8147 67.8519 39.4444 67.8889 39.1851C67.9259 38.9629 68.2593 38.8148 68.4815 38.5925H68.4445Z" fill="#FEFEFE"/>
<path d="M43.6296 39.4074C43.5185 39.6667 43.4445 39.8519 43.3333 39.963C42.8148 40.4445 42.2593 40.963 41.7037 41.4074C41.3704 41.6667 40.963 41.6297 40.7037 41.3334C40.4445 41.0371 40.4445 40.5926 40.7408 40.2963C41.2593 39.8148 41.7778 39.3334 42.3704 38.8889C42.5556 38.7408 42.9259 38.7037 43.1482 38.8148C43.3704 38.8889 43.4815 39.1852 43.6667 39.4074H43.6296Z" fill="#FEFEFE"/>
<path d="M68.4444 35.6296C68.2592 35.4815 67.9629 35.3704 67.8888 35.1482C67.8148 34.9259 67.8518 34.5185 68 34.3704C68.5185 33.8148 69.1111 33.3333 69.7037 32.8519C70.037 32.5926 70.4074 32.6667 70.6666 32.963C70.9259 33.2593 70.9629 33.6296 70.6666 33.8889C70.1111 34.4445 69.4814 34.963 68.8888 35.4815C68.8148 35.5556 68.6666 35.5556 68.4074 35.6667L68.4444 35.6296Z" fill="#FEFEFE"/>
<path d="M43.6295 34.8889C43.4814 35.0741 43.3703 35.3704 43.1851 35.4445C42.9629 35.5556 42.5925 35.5556 42.4073 35.4445C41.8147 35 41.2221 34.4815 40.6666 33.963C40.3703 33.6667 40.3703 33.2963 40.6666 33C40.9258 32.6667 41.2962 32.6296 41.6295 32.8889C42.2221 33.3704 42.8147 33.8889 43.3703 34.4444C43.4814 34.5556 43.5184 34.7407 43.5925 34.963L43.6295 34.8889Z" fill="#FEFEFE"/>
</svg>
