<svg width="113" height="113" viewBox="0 0 113 113" fill="none" xmlns="http://www.w3.org/2000/svg">
<circle cx="56.5" cy="56.5" r="49.2097" fill="#3690C0"/>
<circle cx="56.5" cy="56.5" r="55.5" stroke="#3690C0" stroke-width="2"/>
<path d="M45.416 40.7186C45.5585 40.7186 45.7295 40.6901 45.872 40.6616C45.872 40.2626 46.0145 39.7781 45.872 39.4361C45.188 38.0966 44.4185 36.7855 43.6205 35.503C43.4495 35.2465 42.965 35.1611 42.623 35.0186C42.566 35.3891 42.3665 35.8451 42.509 36.1301C43.2215 37.4696 43.991 38.7806 44.7605 40.0916C44.903 40.3481 45.2165 40.519 45.4445 40.747L45.416 40.7186ZM32.819 44.908C32.7335 45.079 32.477 45.3071 32.5055 45.5351C32.5055 45.8201 32.705 46.1905 32.933 46.333C34.301 47.1595 35.6975 47.986 37.094 48.727C37.322 48.841 37.7495 48.6415 38.063 48.613C37.9205 48.271 37.892 47.758 37.6355 47.587C36.3245 46.7605 34.9565 46.0196 33.617 45.2501C33.446 45.1646 33.275 45.1076 32.819 44.9366V44.908Z" fill="white"/>
<path d="M51.515 87.9999V84.4944C49.805 84.5514 49.748 83.5824 49.748 82.3569C49.748 81.4164 49.3205 80.5044 49.0925 79.5639C48.95 78.9654 48.836 78.3669 48.7505 77.7684C48.6935 77.3409 48.6935 76.9134 48.7505 76.4859C49.064 73.4079 48.4085 71.1279 45.7295 68.8479C40.571 64.4874 39.5165 56.8494 42.395 50.8074C45.3875 44.5659 51.8855 40.9464 58.697 41.7159C59.78 41.8299 60.236 42.2004 60.1505 43.3119C60.0935 44.1954 60.122 45.1074 60.1505 46.0194C60.179 47.2164 59.6375 47.4444 58.64 47.0169C58.1555 46.8174 57.6995 46.4469 57.215 46.4184C56.759 46.3614 56.1035 46.5039 55.8755 46.8174C55.6475 47.1309 55.6475 47.9004 55.8755 48.1854C56.1035 48.4989 56.759 48.4989 57.215 48.6129C57.3005 48.6129 57.386 48.5559 57.4715 48.4989C60.3785 46.9884 60.122 47.9289 60.1505 50.2659C60.1505 54.5694 59.552 54.1419 63.998 54.1419C64.0835 54.1419 64.1975 54.1419 64.283 54.1419C66.905 54.1419 67.019 54.2844 65.936 56.6214C65.6225 57.3054 65.3375 58.0179 66.164 58.4739C66.5345 58.6734 67.475 58.6449 67.532 58.4739C67.76 57.9039 67.7315 57.2199 67.7315 56.5929C67.7315 56.3364 67.5035 56.0799 67.3895 55.8234C66.905 54.5694 67.1045 54.2274 68.501 54.1704C68.9855 54.1704 69.4415 54.1704 69.926 54.1704C72.8615 54.1704 72.89 54.1704 72.89 57.1914C72.89 62.8059 70.6955 67.3089 66.1355 70.6149C65.252 71.2704 64.91 71.9259 64.967 72.9519C65.0525 74.4624 65.081 76.0014 64.967 77.5119C64.91 78.3954 64.454 79.2789 64.283 80.1624C64.1405 80.9319 64.0265 81.7299 64.055 82.5279C64.112 83.6964 63.9125 84.5229 62.5445 84.4089C62.3735 85.6629 62.2025 86.8314 62.06 87.9714H51.515V87.9999ZM58.697 45.4779C59.039 43.0269 59.0105 42.9414 56.7875 42.9984C55.6475 43.0269 54.5075 43.1409 53.4245 43.4259C47.411 45.0504 43.592 48.9549 42.4805 55.0539C41.3975 61.2384 43.649 66.2544 48.836 69.8169C49.805 70.4724 50.147 71.1279 50.09 72.2394C50.0045 74.0919 50.09 75.9444 50.0615 77.7969C50.033 78.9369 50.4605 79.4499 51.629 79.4214C55.1345 79.3929 58.64 79.3929 62.174 79.4214C63.2855 79.4214 63.713 78.9654 63.6845 77.8824C63.656 75.9444 63.7415 73.9779 63.656 72.0399C63.6275 71.0139 63.998 70.4439 64.853 69.8739C69.47 66.7674 71.6645 62.3784 71.522 56.8209C71.522 55.7379 71.123 55.3674 70.097 55.5099C69.7265 55.5669 69.356 55.5669 68.786 55.5954C69.641 57.2199 69.8975 58.8159 68.1305 59.6994C67.3895 60.0699 66.107 60.0129 65.366 59.5854C63.77 58.6734 64.169 57.1344 64.8815 55.5099C63.7415 55.5099 62.744 55.5099 61.775 55.5099C59.5235 55.5099 58.8395 54.7974 58.811 52.5174C58.811 51.5484 58.811 50.5794 58.811 49.3824C57.1295 50.2374 55.733 50.4939 54.65 48.9834C53.966 48.0429 53.9945 47.0169 54.65 46.0479C55.391 44.8794 56.3885 44.7369 58.697 45.4494V45.4779ZM51.2015 80.8464C51.0685 82.3284 51.6765 83.0694 53.0255 83.0694C53.453 83.0694 53.8805 83.0694 54.308 83.0694C57.044 83.0694 59.78 83.0694 62.573 83.0694V80.8464H51.23H51.2015ZM52.826 86.4609H60.9485C61.0055 85.0549 60.3975 84.3519 59.1245 84.3519C57.614 84.3519 56.1035 84.3519 54.5645 84.3519C53.2155 84.3519 52.636 85.0549 52.826 86.4609Z" fill="white"/>
<path d="M85.4301 39.835C84.6606 41.26 83.4921 41.8299 81.6681 41.4594C82.1526 42.6849 82.5801 43.6825 82.9791 44.68C83.6631 46.4185 83.2356 47.473 81.5256 48.2425C80.5851 48.67 79.6161 49.069 78.6756 49.4965C78.6471 49.4965 78.6186 49.582 78.5616 49.696C79.6731 50.779 80.6136 51.976 79.4736 53.6005C78.7611 54.5979 77.7351 54.9399 76.5951 54.5979C74.9706 54.1134 74.6571 52.8025 74.9136 50.9785C73.7451 51.4345 72.7761 51.8335 71.7786 52.2325C69.8691 52.9735 68.8716 52.5745 68.0736 50.665C67.6746 49.7245 67.2756 48.784 66.8196 47.701C65.6511 48.9835 64.4826 49.8384 62.8866 48.8694C61.8321 48.2139 61.4616 47.2165 61.7751 46.048C62.2026 44.3095 63.5706 44.0529 65.3376 44.1669C64.8816 43.0269 64.4826 42.058 64.1121 41.0605C63.4281 39.2935 63.8271 38.239 65.5371 37.5265C68.8146 36.1585 72.0921 34.819 75.3981 33.4795C77.2221 32.7385 78.1911 33.1945 78.9891 35.047C79.3881 35.9875 79.7871 36.928 80.1861 37.897C82.8936 35.9305 83.6631 35.9875 85.4301 38.182V39.892V39.835ZM65.0526 45.5065C64.9101 45.5065 64.7391 45.421 64.6251 45.5065C64.0836 45.763 63.4566 45.9625 63.0576 46.39C62.9151 46.561 63.3711 47.6155 63.5421 47.6155C64.1406 47.6155 64.9386 47.5015 65.3376 47.131C67.1616 45.3355 67.2756 45.307 68.2446 47.6155C68.3301 47.7865 68.3871 47.9575 68.4726 48.1285C70.0686 52.0045 69.4416 51.7195 73.3176 50.1235C76.0536 49.012 76.0251 48.9835 76.1391 51.976C76.1391 52.432 76.5951 53.0875 76.9941 53.2015C77.3931 53.3155 78.1626 53.002 78.3621 52.66C78.5331 52.318 78.3621 51.4915 78.0486 51.2065C75.5121 48.9265 76.3956 48.8409 78.7896 47.8719C78.8466 47.8719 78.8751 47.8435 78.9321 47.815C82.6086 46.3045 82.4091 46.8744 80.8701 43.1694C79.7301 40.405 79.7301 40.4334 82.7796 40.1769C83.2071 40.1484 83.8056 39.7495 83.9196 39.4075C84.0336 39.037 83.8056 38.2675 83.4921 38.0965C83.1216 37.897 82.4376 38.011 81.9816 38.239C81.5541 38.467 81.2691 38.98 80.8986 39.3505C80.1006 40.12 79.5306 40.0345 79.1316 38.923C78.6756 37.726 78.1626 36.5575 77.6781 35.3605C77.3646 34.5625 76.8516 34.2775 75.9966 34.6195C72.6621 36.016 69.3276 37.3555 65.9931 38.7235C65.1381 39.0655 64.9671 39.6355 65.3091 40.4335C65.7081 41.4025 66.1071 42.3714 66.5061 43.3119C67.3041 45.2784 67.1046 45.5635 65.0526 45.535V45.5065Z" fill="white"/>
<path d="M29 58.9299C30.9095 58.8444 32.8475 58.7304 34.757 58.7019C34.985 58.7019 35.2415 59.0724 35.4695 59.2434C35.2415 59.4999 35.0135 59.9559 34.7855 59.9559C32.8475 59.9559 30.938 59.8419 29 59.7564C29 59.4714 29 59.1864 29 58.9014V58.9299Z" fill="white"/>
<path d="M56.93 31C56.987 32.881 57.044 34.762 57.044 36.643C57.044 36.928 56.6735 37.213 56.474 37.4695C56.246 37.27 55.8185 37.0705 55.8185 36.871C55.8755 34.9045 55.961 32.9665 56.075 31H56.93Z" fill="white"/>
<path d="M45.416 40.7185C45.188 40.519 44.903 40.3195 44.732 40.063C43.9625 38.752 43.1645 37.4695 42.4805 36.1015C42.338 35.8165 42.5375 35.3605 42.5945 34.99C42.9365 35.161 43.421 35.218 43.592 35.4745C44.39 36.757 45.1595 38.068 45.8435 39.4075C46.0145 39.721 45.8435 40.2055 45.8435 40.633C45.701 40.633 45.53 40.6615 45.3875 40.69L45.416 40.7185Z" fill="white"/>
<path d="M32.819 44.9079C33.275 45.0789 33.446 45.1359 33.617 45.2214C34.9565 45.9909 36.3245 46.7319 37.6355 47.5584C37.892 47.7294 37.9205 48.2424 38.063 48.5844C37.721 48.6414 37.322 48.8409 37.094 48.6984C35.669 47.9574 34.301 47.1309 32.933 46.3044C32.705 46.1619 32.534 45.7914 32.5055 45.5064C32.5055 45.2784 32.7335 45.0219 32.819 44.8794V44.9079Z" fill="white"/>
</svg>
